<?xml version="1.0" encoding="iso-8859-1"?>
<!-- Generator: Adobe Illustrator 19.0.0, SVG Export Plug-In . SVG Version: 6.00 Build 0)  -->
<svg version="1.1" id="Capa_1" xmlns="http://www.w3.org/2000/svg" xmlns:xlink="http://www.w3.org/1999/xlink" x="0px" y="0px"
	 viewBox="0 0 512 512" style="enable-background:new 0 0 512 512;" xml:space="preserve">
<g>
	<g>
		<g>
			<circle cx="192" cy="384" r="21.333"/>
			<circle cx="320" cy="384" r="21.333"/>
			<path d="M256,0C114.844,0,0,114.844,0,256s114.844,256,256,256s256-114.844,256-256S397.156,0,256,0z M373.333,426.667
				c-11.309,0-21.423-2.365-30.276-6.87c-6.661,4.305-14.551,6.87-23.057,6.87c-23.531,0-42.667-19.135-42.667-42.667
				c0-12.15,5.161-23.061,13.335-30.839l-30.283-54.495H256h-4.385l-30.283,54.495c8.173,7.777,13.335,18.689,13.335,30.839
				c0,23.531-19.135,42.667-42.667,42.667S149.333,407.531,149.333,384s19.135-42.667,42.667-42.667c2.84,0,5.608,0.307,8.294,0.839
				l36.141-75.064L171.396,99.865c-2.083-5.333,0.438-11.365,5.688-13.646c5.26-2.302,11.375,0,13.865,5.156L256,226.479
				l65.052-135.104c2.49-5.135,8.615-7.417,13.854-5.167c5.25,2.281,7.771,8.292,5.708,13.635l-64.803,167.781l35.895,74.547
				c2.686-0.531,5.454-0.839,8.294-0.839c23.531,0,42.667,19.135,42.667,42.667c0,6.792-1.741,13.129-4.574,18.833
				c4.617,1.523,9.612,2.5,15.241,2.5c5.896,0,10.667,4.771,10.667,10.667C384,421.896,379.229,426.667,373.333,426.667z"/>
		</g>
	</g>
</g>
<g>
</g>
<g>
</g>
<g>
</g>
<g>
</g>
<g>
</g>
<g>
</g>
<g>
</g>
<g>
</g>
<g>
</g>
<g>
</g>
<g>
</g>
<g>
</g>
<g>
</g>
<g>
</g>
<g>
</g>
</svg>
